<?xml version="1.0" encoding="utf-8"?>
<!-- Generator: Adobe Illustrator 19.2.1, SVG Export Plug-In . SVG Version: 6.00 Build 0)  -->
<svg version="1.1" id="Layer_1" xmlns="http://www.w3.org/2000/svg" xmlns:xlink="http://www.w3.org/1999/xlink" x="0px" y="0px"
	 viewBox="0 0 512 512" style="enable-background:new 0 0 512 512;" xml:space="preserve">
<style type="text/css">
	.st0{fill:#929191;}
</style>
<path class="st0" d="M192,128h-79.1c2.4-2.6,4.8-5.2,7.3-7.8C156.5,84,204.7,64,256,64s99.5,20,135.8,56.2
	C428,156.5,448,204.7,448,256h64C512,114.6,397.4,0,256,0C179.5,0,110.9,33.5,64,86.7V0H0v192h192V128z M320,384h79.1
	c-2.4,2.6-4.8,5.2-7.3,7.8C355.5,428,307.3,448,256,448s-99.5-20-135.8-56.2C84,355.5,64,307.3,64,256H0c0,141.4,114.6,256,256,256
	c76.5,0,145.1-33.5,192-86.7V512h64V320H320V384z"/>
</svg>
