<?xml version="1.0" encoding="utf-8"?>
<!-- Generator: Adobe Illustrator 19.1.0, SVG Export Plug-In . SVG Version: 6.00 Build 0)  -->
<svg version="1.1" id="Layer_1" xmlns="http://www.w3.org/2000/svg" xmlns:xlink="http://www.w3.org/1999/xlink" x="0px" y="0px"
	 viewBox="0 0 795.1 323.6" style="enable-background:new 0 0 795.1 323.6;" xml:space="preserve">
<style type="text/css">
	.st0{fill:#FFFFFF;}
	.st1{fill:#F17A22;}
	.st2{fill:#F6EB00;}
	.st3{fill:#E62825;}
	.st4{fill:#9DC950;}
	.st5{fill:#57C2F0;}
	.st6{font-family:'Raleway-ExtraBold';}
	.st7{font-size:126.75px;}
</style>
<circle class="st0" cx="155" cy="155" r="155"/>
<g>
	<path class="st1" d="M291.5,148.7H186.1V77.6h81.6C281.7,98,290.3,122.4,291.5,148.7z"/>
	<path class="st2" d="M291.6,157.6c-0.5,26.1-8.3,50.5-21.5,71.1c-2,3.1-4,6-6.2,8.9c-3.4,4.5-7.2,8.8-11.1,12.9
		c-2.8,2.9-5.8,5.7-8.9,8.4c-16.4,14-36.1,24.2-57.7,29.2c-2.9,0.7-5.9,1.3-8.9,1.8c-7.2,1.2-14.6,1.8-22.2,1.8
		c-16.7,0-32.8-3-47.6-8.5v-45.5h145.3v-80H291.6z"/>
	<path class="st3" d="M243.8,157.6v71.1H39.9c-13.2-20.6-21-44.9-21.5-71.1H243.8z"/>
	<path class="st4" d="M261,68.7H107.4V26.9c14.8-5.5,30.9-8.5,47.6-8.5c7.5,0,15,0.6,22.2,1.8c3,0.5,6,1.1,8.9,1.8
		c21.7,5,41.4,15.2,57.7,29.2c3.1,2.7,6.1,5.4,8.9,8.3C255.6,62.4,258.4,65.5,261,68.7z"/>
	<g>
		<path class="st5" d="M98.5,30.5v118.2h-80c1.2-26.3,9.8-50.7,23.9-71.1c2.1-3.1,4.3-6,6.7-8.9C62.3,52.5,79.2,39.3,98.5,30.5z"/>
	</g>
</g>
<text transform="matrix(1 0 0 1 334.5535 148.2131)"><tspan x="0" y="0" class="st0 st6 st7">Missing</tspan><tspan x="0" y="114" class="st0 st6 st7">Maps</tspan></text>
</svg>
