<?xml version="1.0" encoding="utf-8"?>
<!-- Generator: Adobe Illustrator 19.2.1, SVG Export Plug-In . SVG Version: 6.00 Build 0)  -->
<svg version="1.1" id="Layer_1" xmlns="http://www.w3.org/2000/svg" xmlns:xlink="http://www.w3.org/1999/xlink" x="0px" y="0px"
	 viewBox="0 0 512 512" style="enable-background:new 0 0 512 512;" xml:space="preserve">
<style type="text/css">
	.st0{fill:#919090;}
</style>
<g>
	<path class="st0" d="M31.2,255.7c0-6.1,1.1-11.8,3.3-17.1c2.2-5.4,5.2-10,9.1-14c3.8-4,8.4-7.1,13.8-9.4c5.4-2.3,11.1-3.5,17.1-3.5
		c6.1,0,11.8,1.2,17.1,3.5c5.4,2.3,10,5.5,14,9.4c4,4,7.1,8.6,9.4,14c2.3,5.4,3.5,11.1,3.5,17.1c0,6.3-1.2,12.1-3.5,17.3
		c-2.3,5.2-5.5,9.8-9.4,13.8c-4,4-8.6,7-14,9.3c-5.4,2.2-11.1,3.3-17.1,3.3c-6.1,0-11.8-1.1-17.1-3.3c-5.4-2.2-10-5.3-13.8-9.3
		c-3.8-4-6.9-8.6-9.1-13.8C32.3,267.7,31.2,261.9,31.2,255.7z"/>
	<path class="st0" d="M211,255.7c0-6.1,1.1-11.8,3.3-17.1c2.2-5.4,5.2-10,9.1-14c3.8-4,8.4-7.1,13.8-9.4c5.4-2.3,11.1-3.5,17.1-3.5
		c6.1,0,11.8,1.2,17.1,3.5c5.4,2.3,10,5.5,14,9.4c4,4,7.1,8.6,9.4,14c2.3,5.4,3.5,11.1,3.5,17.1c0,6.3-1.2,12.1-3.5,17.3
		c-2.3,5.2-5.5,9.8-9.4,13.8c-4,4-8.6,7-14,9.3c-5.4,2.2-11.1,3.3-17.1,3.3c-6.1,0-11.8-1.1-17.1-3.3c-5.4-2.2-10-5.3-13.8-9.3
		c-3.8-4-6.9-8.6-9.1-13.8C212.1,267.7,211,261.9,211,255.7z"/>
	<path class="st0" d="M390.7,255.7c0-6.1,1.1-11.8,3.3-17.1c2.2-5.4,5.2-10,9.1-14c3.8-4,8.4-7.1,13.8-9.4
		c5.4-2.3,11.1-3.5,17.1-3.5c6.1,0,11.8,1.2,17.1,3.5c5.4,2.3,10,5.5,14,9.4c4,4,7.1,8.6,9.4,14c2.3,5.4,3.5,11.1,3.5,17.1
		c0,6.3-1.2,12.1-3.5,17.3c-2.3,5.2-5.5,9.8-9.4,13.8c-4,4-8.6,7-14,9.3c-5.4,2.2-11.1,3.3-17.1,3.3c-6.1,0-11.8-1.1-17.1-3.3
		c-5.4-2.2-10-5.3-13.8-9.3c-3.8-4-6.9-8.6-9.1-13.8C391.8,267.7,390.7,261.9,390.7,255.7z"/>
</g>
</svg>
